<?xml version="1.0" standalone="no"?>
<!DOCTYPE svg PUBLIC "-//W3C//DTD SVG 20010904//EN"
 "http://www.w3.org/TR/2001/REC-SVG-20010904/DTD/svg10.dtd">
<svg version="1.0" xmlns="http://www.w3.org/2000/svg"
 width="920.000000pt" height="483.000000pt" viewBox="0 0 920.000000 483.000000"
 preserveAspectRatio="xMidYMid meet">

<g transform="translate(0.000000,483.000000) scale(0.100000,-0.100000)"
fill="#000000" stroke="none">
<path d="M4615 4805 c-25 -24 -25 -27 -25 -199 l0 -174 -140 -4 c-118 -2 -142
-6 -157 -21 -16 -15 -19 -43 -23 -220 l-5 -202 -85 -22 c-381 -100 -691 -280
-961 -559 -203 -210 -343 -434 -444 -709 -67 -180 -99 -333 -114 -552 -29
-410 69 -819 281 -1164 185 -303 440 -549 749 -726 492 -281 1148 -330 1674
-127 125 49 117 48 140 11 38 -60 122 -41 140 31 24 101 22 98 106 152 85 53
215 152 237 178 19 24 15 79 -8 102 -36 36 -71 26 -166 -47 -73 -55 -86 -62
-81 -42 4 13 10 40 13 60 l6 36 201 69 c111 38 212 78 224 89 28 24 37 75 17
103 -10 14 -80 42 -227 91 l-214 71 -43 183 c-74 312 -80 327 -148 327 -53 0
-66 -28 -128 -277 l-58 -232 -195 -66 c-108 -36 -206 -70 -218 -76 -33 -18
-48 -62 -33 -99 13 -33 6 -29 281 -124 l166 -57 31 -128 c18 -71 32 -135 32
-143 0 -35 -428 -168 -541 -168 -18 0 -19 2 -5 29 39 75 126 354 126 404 0 29
-45 67 -80 67 -51 0 -73 -32 -104 -155 -50 -193 -115 -334 -162 -352 -53 -20
-142 179 -208 464 l-24 102 122 -6 c119 -6 122 -5 150 19 38 33 39 83 1 116
-21 18 -39 22 -98 23 -40 1 -101 4 -137 8 l-65 6 -7 55 c-16 136 -38 365 -44
470 l-7 115 309 -2 309 -2 -3 -63 c-2 -35 -7 -112 -13 -173 -23 -264 -23 -268
0 -292 27 -29 83 -31 110 -4 10 10 22 36 25 57 11 75 25 230 32 352 4 67 11
125 17 129 5 3 95 12 201 19 169 13 354 33 469 51 36 5 38 4 33 -18 -3 -13
-14 -72 -26 -130 -11 -59 -31 -145 -45 -193 -34 -116 -33 -149 4 -175 35 -25
43 -26 81 -6 25 13 34 29 54 98 37 122 74 281 88 375 9 71 14 83 32 87 141 31
290 72 358 99 45 19 85 32 87 30 2 -2 -15 -41 -38 -86 -76 -155 -203 -292
-391 -424 -87 -61 -110 -86 -110 -122 0 -32 43 -72 78 -72 47 0 196 104 315
219 l68 66 -35 -83 c-20 -46 -58 -126 -85 -178 -45 -84 -49 -97 -39 -124 18
-54 81 -67 122 -27 62 62 181 328 241 537 88 309 94 683 16 1005 -138 569
-533 1064 -1056 1323 -158 78 -215 100 -370 142 l-130 36 -3 201 c-3 253 10
237 -183 241 l-139 4 0 174 c0 172 0 175 -25 199 -13 14 -36 25 -50 25 -14 0
-37 -11 -50 -25z m295 -665 l0 -131 -37 8 c-21 4 -112 7 -203 8 l-166 0 1 115
0 115 -45 6 c-25 3 66 7 203 7 l247 2 0 -130z m-173 -356 c36 -65 91 -231 123
-367 31 -136 53 -122 -195 -122 -194 0 -215 2 -215 17 0 9 11 63 24 120 46
193 111 359 160 411 25 27 29 28 48 15 12 -8 37 -41 55 -74z m-315 9 c-31 -60
-88 -251 -112 -370 -28 -144 -32 -153 -72 -153 -53 0 -319 -57 -423 -91 -53
-17 -98 -29 -101 -27 -6 7 90 167 151 250 113 154 271 294 415 368 52 27 154
68 158 64 2 -1 -5 -19 -16 -41z m648 -34 c136 -70 275 -194 388 -345 59 -79
165 -254 159 -261 -3 -2 -47 9 -99 25 -104 34 -300 77 -396 88 -34 3 -64 10
-67 14 -2 4 -16 60 -30 126 -28 134 -88 330 -116 386 -10 21 -19 39 -19 42 0
8 104 -35 180 -75z m-1210 -116 c-123 -131 -234 -298 -324 -487 l-46 -96 -98
-49 c-92 -46 -236 -138 -310 -198 l-33 -26 42 79 c111 210 212 353 351 494
107 109 196 189 203 182 3 -3 5 -1 5 5 0 13 103 80 195 127 39 20 72 36 74 36
2 0 -25 -30 -59 -67z m1727 -21 c116 -69 221 -146 312 -228 209 -191 350 -383
465 -637 l36 -77 -92 80 c-109 97 -251 193 -376 255 l-92 46 -45 96 c-86 183
-199 353 -322 483 l-67 71 56 -24 c31 -14 87 -43 125 -65z m-2087 -176 c0 -2
-8 -10 -17 -17 -16 -13 -17 -12 -4 4 13 16 21 21 21 13z m-100 -90 c0 -2 -8
-10 -17 -17 -16 -13 -17 -12 -4 4 13 16 21 21 21 13z m-40 -39 c0 -2 -17 -19
-37 -38 l-38 -34 34 38 c33 34 41 42 41 34z m1527 -183 l29 -6 22 -186 c12
-103 24 -227 27 -277 3 -49 8 -109 11 -132 l5 -43 -313 0 -314 0 8 108 c4 59
17 202 29 319 21 199 23 212 43 216 34 7 420 8 453 1z m-637 -37 c0 -7 -7 -67
-15 -133 -8 -66 -21 -200 -28 -297 -8 -98 -16 -179 -18 -181 -2 -2 -103 -11
-224 -20 -205 -15 -429 -40 -466 -52 -15 -4 -16 2 -2 73 21 119 70 310 99 389
22 61 30 73 57 82 18 6 71 24 120 41 95 33 260 75 372 96 93 17 105 17 105 2z
m925 -1 c162 -29 391 -92 506 -140 34 -14 37 -20 71 -133 35 -113 67 -246 86
-361 8 -46 7 -52 -7 -48 -36 12 -260 36 -466 52 -121 9 -222 18 -224 20 -2 2
-10 82 -17 177 -7 94 -20 230 -29 302 -8 71 -15 133 -15 137 0 10 2 10 95 -6z
m-1775 -314 c-20 -64 -65 -274 -75 -353 l-6 -47 -97 -22 c-107 -24 -302 -85
-344 -106 -33 -17 -33 -18 -8 39 79 179 230 348 430 480 63 42 116 75 117 73
1 -1 -6 -30 -17 -64z m2680 -40 c84 -60 219 -190 277 -267 43 -57 103 -165
117 -211 6 -21 3 -20 -72 10 -44 18 -149 50 -234 71 l-156 39 -17 111 c-16 98
-61 290 -80 338 -9 21 60 -16 165 -91z m-3100 -15 c0 -2 -10 -12 -22 -23 l-23
-19 19 23 c18 21 26 27 26 19z m1856 -395 l141 -2 7 -160 c4 -88 4 -232 0
-320 l-7 -160 -312 0 -312 0 -6 163 c-3 89 -3 233 0 319 l6 157 141 3 c78 2
155 3 171 2 17 0 93 -1 171 -2z m564 -27 c143 -12 461 -52 467 -58 7 -8 12
-318 6 -387 l-8 -85 -115 -17 c-108 -15 -342 -39 -525 -53 l-80 -7 0 311 0
311 45 0 c25 0 119 -7 210 -15z m960 -185 c88 -38 160 -85 160 -105 0 -33 -90
-88 -215 -133 -63 -23 -242 -72 -261 -72 -8 0 -11 59 -11 204 l0 204 126 -33
c69 -18 160 -48 201 -65z m-3062 -110 c0 -110 -1 -200 -3 -200 -22 0 -189 46
-260 70 -150 53 -145 49 -145 130 l0 70 40 20 c78 40 297 108 352 110 15 0 16
-20 16 -200z m363 -424 c64 -9 207 -23 320 -31 112 -9 206 -18 208 -21 2 -2
10 -78 17 -168 7 -90 20 -228 29 -306 10 -77 16 -143 14 -145 -5 -4 -177 27
-274 50 -135 31 -327 97 -352 119 -21 20 -90 262 -123 434 l-17 94 31 -6 c17
-3 83 -12 147 -20z m-334 -48 c-3 -8 -6 -5 -6 6 -1 11 2 17 5 13 3 -3 4 -12 1
-19z m-166 -175 c13 -16 12 -17 -3 -4 -17 13 -22 21 -14 21 2 0 10 -8 17 -17z
m-200 -50 c13 -16 12 -17 -3 -4 -10 7 -18 15 -18 17 0 8 8 3 21 -13z m175
-143 c71 -54 200 -134 294 -181 l65 -32 63 -129 c77 -158 174 -304 282 -427
l83 -93 -64 33 c-147 73 -215 126 -390 299 -127 126 -170 177 -247 291 -58 86
-176 302 -158 292 6 -4 39 -28 72 -53z m2457 -133 c14 -54 33 -107 42 -118 10
-10 69 -35 131 -56 63 -21 114 -40 114 -43 0 -3 -51 -22 -114 -43 -62 -21
-121 -46 -131 -56 -9 -11 -28 -64 -42 -118 -13 -54 -26 -99 -28 -101 -2 -2
-13 42 -26 97 -12 56 -30 109 -40 120 -10 11 -70 37 -134 57 -63 21 -115 41
-115 44 0 3 51 22 113 43 69 23 122 46 134 60 13 13 29 60 43 120 12 54 23 97
25 95 2 -2 15 -47 28 -101z m-2128 -427 c10 -11 16 -20 13 -20 -3 0 -13 9 -23
20 -10 11 -16 20 -13 20 3 0 13 -9 23 -20z m56 -47 c13 -16 12 -17 -3 -4 -17
13 -22 21 -14 21 2 0 10 -8 17 -17z"/>
<path d="M6322 4823 c-23 -9 -38 -55 -92 -273 -29 -118 -58 -220 -64 -226 -6
-6 -101 -42 -211 -80 -109 -37 -207 -76 -217 -86 -23 -23 -23 -70 0 -96 10
-13 90 -45 210 -86 107 -36 201 -70 209 -75 11 -6 36 -87 75 -242 62 -248 72
-269 127 -269 58 0 65 14 126 262 32 128 63 238 69 244 6 7 63 29 126 49 191
63 294 104 308 122 18 25 15 66 -7 89 -11 12 -94 46 -202 82 -101 34 -195 68
-209 75 -22 11 -30 36 -81 240 -43 173 -62 234 -80 253 -21 23 -56 30 -87 17z
m66 -501 c12 -54 30 -106 39 -115 9 -9 67 -33 127 -53 61 -20 115 -40 119 -44
5 -4 -12 -12 -36 -18 -24 -7 -81 -26 -126 -43 -94 -36 -99 -43 -126 -164 -19
-84 -35 -117 -35 -73 0 14 -4 38 -9 54 -5 16 -17 55 -26 86 -18 67 -17 66
-167 118 -60 21 -105 40 -101 43 4 2 59 21 121 42 77 25 117 44 127 58 8 12
24 64 37 114 13 51 25 93 28 93 3 0 15 -44 28 -98z"/>
<path d="M2795 4488 c-22 -20 -34 -57 -84 -257 l-59 -235 -207 -71 c-215 -73
-245 -91 -245 -140 0 -46 30 -63 244 -137 l210 -73 58 -235 c33 -129 66 -243
75 -252 22 -24 85 -24 107 1 9 10 42 120 75 252 l59 234 209 73 c136 47 214
79 226 93 24 29 22 71 -5 96 -13 11 -113 51 -223 88 -110 37 -202 69 -204 71
-1 1 -29 108 -61 236 -51 200 -63 236 -85 256 -14 12 -35 22 -45 22 -10 0 -31
-10 -45 -22z m73 -487 c13 -57 30 -105 40 -114 10 -9 71 -35 136 -58 l118 -42
-113 -39 c-63 -22 -124 -49 -136 -61 -15 -15 -30 -55 -46 -121 -13 -55 -26
-95 -29 -90 -3 5 -15 50 -28 101 -12 50 -27 99 -34 109 -7 9 -68 35 -135 58
l-123 42 119 43 c66 23 127 49 136 58 9 9 27 61 39 115 13 54 25 98 28 98 3 0
15 -45 28 -99z"/>
</g>
</svg>
